<svg xmlns="http://www.w3.org/2000/svg" xmlns:xlink="http://www.w3.org/1999/xlink" version="1.1" width="180" height="19.8895" viewBox="-0.000012569446184329536 0 181.00002513889237 20" xml:space="preserve">
<g transform="matrix(0.3016666667 0 0 1.6993957704 90.5 10)" id="pkSL_VqkXfqrseXTcOk-_"  >
<path style="stroke: none; stroke-width: 1; stroke-dasharray: none; stroke-linecap: butt; stroke-dashoffset: 0; stroke-linejoin: miter; stroke-miterlimit: 4; fill: rgb(0,0,0); fill-rule: nonzero; opacity: 1;"  transform=" translate(-300, -300)" d="M 163.912 298.477 L 170.094 299.585 L 169.43699999999998 303.24399999999997 L 163.242 302.131 L 163.912 298.477 z M 152.126 300.145 L 158.327 301.25399999999996 L 158.984 297.597 L 152.78900000000002 296.489 L 152.126 300.145 z M 196.799 299.106 L 197.466 302.766 L 203.654 301.654 L 203.007 297.999 L 196.799 299.106 z M 185.702 301.094 L 186.353 304.752 L 192.55100000000002 303.64 L 191.89100000000002 299.995 L 185.702 301.094 z M 174.441 304.139 L 180.912 305.296 L 181.126 301.556 L 175.091 300.47299999999996 L 174.441 304.139 z M 229.995 300.021 L 236.186 301.139 L 236.846 297.473 L 230.645 296.36400000000003 L 229.995 300.021 z M 219.152 295.105 L 219.57 298.80600000000004 L 221.392 298.49500000000006 L 225.079 299.14200000000005 L 225.726 295.4800000000001 L 221.392 294.70400000000006 L 219.152 295.105 z M 207.994 297.11 L 208.644 300.767 L 214.839 299.658 L 214.183 296 L 207.994 297.11 z M 263.564 301.21 L 264.189 304.885 L 270.403 303.772 L 269.75300000000004 300.101 L 263.564 301.21 z M 252.253 304.004 L 258.64 305.149 L 259.00399999999996 301.442 L 252.91299999999995 300.345 L 252.253 304.004 z M 241.184 302.037 L 247.375 303.137 L 248.029 299.48 L 241.837 298.361 L 241.184 302.037 z M 285.807 297.233 L 286.47 300.899 L 292.67100000000005 299.78 L 292.011 296.125 L 285.807 297.233 z M 274.743 299.213 L 275.397 302.87300000000005 L 281.594 301.76500000000004 L 280.941 298.10300000000007 L 274.743 299.213 z M 463.242 302.131 L 469.437 303.24399999999997 L 470.093 299.585 L 463.911 298.477 L 463.242 302.131 z M 452.126 300.145 L 458.327 301.25399999999996 L 458.984 297.597 L 452.789 296.489 L 452.126 300.145 z M 496.8 299.106 L 497.466 302.766 L 503.654 301.654 L 503.007 297.999 L 496.8 299.106 z M 485.702 301.094 L 486.352 304.752 L 492.549 303.64 L 491.89 299.995 L 485.702 301.094 z M 474.44 304.139 L 480.912 305.296 L 481.126 301.556 L 475.092 300.47299999999996 L 474.44 304.139 z M 529.995 300.021 L 536.186 301.139 L 536.846 297.473 L 530.645 296.36400000000003 L 529.995 300.021 z M 519.152 295.105 L 519.57 298.80600000000004 L 521.392 298.49500000000006 L 525.0790000000001 299.14200000000005 L 525.7260000000001 295.4800000000001 L 521.3920000000002 294.70400000000006 L 519.152 295.105 z M 507.994 297.11 L 508.644 300.767 L 514.839 299.658 L 514.183 296 L 507.994 297.11 z M 563.564 301.21 L 564.189 304.885 L 570.403 303.772 L 569.753 300.101 L 563.564 301.21 z M 552.253 304.004 L 558.64 305.149 L 559.004 301.442 L 552.913 300.345 L 552.253 304.004 z M 541.184 302.037 L 547.375 303.137 L 548.029 299.48 L 541.837 298.361 L 541.184 302.037 z M 599.918 294.704 L 596.964 295.237 L 597.514 298.916 L 599.918 298.495 L 600 298.509 L 600 294.718 L 599.918 294.704 z M 585.807 297.233 L 586.47 300.899 L 592.671 299.78 L 592.0110000000001 296.125 L 585.807 297.233 z M 574.743 299.213 L 575.397 302.87300000000005 L 581.594 301.76500000000004 L 580.941 298.10300000000007 L 574.743 299.213 z M 129.906 299.585 L 130.56300000000002 303.24399999999997 L 136.758 302.131 L 136.089 298.477 L 129.906 299.585 z M 141.016 297.597 L 141.673 301.25399999999996 L 147.874 300.145 L 147.21099999999998 296.49 L 141.016 297.597 z M 96.346 301.653 L 102.534 302.76500000000004 L 103.20100000000001 299.105 L 96.99300000000001 297.997 L 96.346 301.653 z M 107.45 303.64 L 113.648 304.752 L 114.298 301.094 L 108.11 299.995 L 107.45 303.64 z M 118.874 301.556 L 119.088 305.296 L 125.559 304.139 L 124.90899999999999 300.473 L 118.874 301.556 z M 63.153 297.473 L 63.812999999999995 301.139 L 70.00399999999999 300.021 L 69.35399999999998 296.36400000000003 L 63.153 297.473 z M 74.273 295.48 L 74.92 299.142 L 78.607 298.495 L 80.42999999999999 298.806 L 80.848 295.10499999999996 L 78.607 294.70399999999995 L 74.273 295.48 z M 85.16 299.658 L 91.35499999999999 300.767 L 92.005 297.11 L 85.817 296 L 85.16 299.658 z M 29.597 303.771 L 35.81 304.884 L 36.435 301.209 L 30.247000000000003 300.1 L 29.597 303.771 z M 40.996 301.441 L 41.361000000000004 305.14799999999997 L 47.74700000000001 304.003 L 47.08700000000001 300.34299999999996 L 40.996 301.441 z M 51.971 299.48 L 52.625 303.137 L 58.816 302.037 L 58.162 298.361 L 51.971 299.48 z M 0 294.718 L 0 298.509 L 0.082 298.495 L 2.4859999999999998 298.916 L 3.0359999999999996 295.237 L 0.08099999999999952 294.704 L 0 294.718 z M 7.329 299.78 L 13.53 300.899 L 14.193 297.233 L 7.989 296.125 L 7.329 299.78 z M 18.405 301.765 L 24.603 302.873 L 25.257 299.21299999999997 L 19.059 298.10299999999995 L 18.405 301.765 z M 429.906 299.585 L 430.562 303.24399999999997 L 436.757 302.131 L 436.087 298.477 L 429.906 299.585 z M 441.016 297.597 L 441.673 301.25399999999996 L 447.874 300.145 L 447.211 296.49 L 441.016 297.597 z M 396.346 301.653 L 402.534 302.76500000000004 L 403.2 299.105 L 396.993 297.997 L 396.346 301.653 z M 407.449 303.64 L 413.647 304.752 L 414.29699999999997 301.094 L 408.109 299.995 L 407.449 303.64 z M 418.874 301.556 L 419.088 305.296 L 425.56 304.139 L 424.909 300.473 L 418.874 301.556 z M 363.153 297.473 L 363.81300000000005 301.139 L 370.004 300.021 L 369.35400000000004 296.36400000000003 L 363.153 297.473 z M 374.273 295.48 L 374.92 299.142 L 378.607 298.495 L 380.42900000000003 298.806 L 380.84700000000004 295.10499999999996 L 378.607 294.70399999999995 L 374.273 295.48 z M 385.16 299.658 L 391.35400000000004 300.767 L 392.00500000000005 297.11 L 385.817 296 L 385.16 299.658 z M 329.597 303.771 L 335.811 304.884 L 336.436 301.209 L 330.248 300.1 L 329.597 303.771 z M 340.996 301.441 L 341.35999999999996 305.14799999999997 L 347.74699999999996 304.003 L 347.08699999999993 300.34299999999996 L 340.996 301.441 z M 351.971 299.48 L 352.625 303.137 L 358.816 302.037 L 358.162 298.361 L 351.971 299.48 z M 300 294.718 L 299.918 294.704 L 296.964 295.237 L 297.514 298.916 L 299.918 298.495 L 300 298.509 L 300.082 298.495 L 302.486 298.916 L 303.036 295.237 L 300.082 294.704 L 300 294.718 z M 307.329 299.78 L 313.53000000000003 300.899 L 314.19300000000004 297.233 L 307.98900000000003 296.125 L 307.329 299.78 z M 318.404 301.765 L 324.602 302.873 L 325.255 299.21299999999997 L 319.058 298.10299999999995 L 318.404 301.765 z" stroke-linecap="round" />
</g>
</svg>